# xmcd
#
# Track frame offsets:
#	150
#	16187
#	34795
#	53237
#	76337
#	96272
#	115770
#	133100
#	144125
#	157560
#	183122
#	203562
#	226455
#	249720
#	271295
#	291712
#
# Disc length: 4179 seconds
#
# Revision: 1
# Processed by: cddbd v1.5.1PL0 Copyright (c) Steve Scherf et al.
# Submitted via: CDex 1.50Beta5
#
DISCID=d2105110
DTITLE=吉幾三 - 全曲集
DYEAR=1996
DGENRE=Pop
TTITLE0=前略ふるさと様
TTITLE1=津軽平野
TTITLE2=酒よ
TTITLE3=エレジー
TTITLE4=津軽恋唄
TTITLE5=ロイドの店で
TTITLE6=小泊港
TTITLE7=俺はぜったいプレスリー
TTITLE8=俺ら東京さ行ぐだ
TTITLE9=と・も・子…
TTITLE10=途中下車
TTITLE11=釜山
TTITLE12=夜更けのメロディー
TTITLE13=出逢いの唄
TTITLE14=雪國
TTITLE15=酔歌
EXTD=
EXTT0=
EXTT1=
EXTT2=
EXTT3=
EXTT4=
EXTT5=
EXTT6=
EXTT7=
EXTT8=
EXTT9=
EXTT10=
EXTT11=
EXTT12=
EXTT13=
EXTT14=
EXTT15=
PLAYORDER=
